<?xml version="1.0" encoding="UTF-8"?>
<svg xmlns="http://www.w3.org/2000/svg" width="128" height="128" viewBox="0 0 128 128">
  <!-- Azzio Videos folder (theme name folder-videos, the Videos dir). Base Azzio folder + a
       white film clapper / play triangle on the front flap. -->
  <defs>
    <linearGradient id="azFolder" x1="0" y1="0" x2="0" y2="1">
      <stop offset="0" stop-color="#07AFE8"/>
      <stop offset="0.5" stop-color="#06B8FD"/>
      <stop offset="1" stop-color="#0064F9"/>
    </linearGradient>
    <linearGradient id="azFolderBack" x1="0" y1="0" x2="0" y2="1">
      <stop offset="0" stop-color="#0698D6"/>
      <stop offset="1" stop-color="#0052CC"/>
    </linearGradient>
  </defs>
  <path fill="url(#azFolderBack)" d="M14 40 a10 10 0 0 1 10 -10 h26 a10 10 0 0 1 8 4 l7 9 h35 a10 10 0 0 1 10 10 v51 a10 10 0 0 1 -10 10 H24 a10 10 0 0 1 -10 -10 Z"/>
  <path fill="url(#azFolder)" d="M14 56 a10 10 0 0 1 10 -10 h80 a10 10 0 0 1 10 10 v42 a10 10 0 0 1 -10 10 H24 a10 10 0 0 1 -10 -10 Z"/>
  <!-- White rounded screen with a play triangle. -->
  <rect fill="#ffffff" x="46" y="66" width="36" height="26" rx="5"/>
  <path fill="#06B8FD" d="M60 73 v12 l11 -6 Z"/>
</svg>
